<?xml version="1.0" standalone="no"?>
<!DOCTYPE svg PUBLIC "-//W3C//DTD SVG 20010904//EN"
 "http://www.w3.org/TR/2001/REC-SVG-20010904/DTD/svg10.dtd">
<svg version="1.0" xmlns="http://www.w3.org/2000/svg"
 width="124.000000pt" height="168.000000pt" viewBox="0 0 124.000000 168.000000"
 preserveAspectRatio="xMidYMid meet">
<metadata>
Created by potrace 1.16, written by Peter Selinger 2001-2019
</metadata>
<g transform="translate(0.000000,168.000000) scale(0.100000,-0.100000)"
fill="#000000" stroke="none">
<path d="M589 1622 c-8 -10 -14 -23 -12 -29 2 -6 -5 -17 -15 -25 -19 -13 -22
-18 -22 -39 0 -5 -4 -7 -10 -4 -5 3 -10 -1 -10 -9 0 -8 -10 -22 -22 -30 -12
-9 -19 -16 -14 -16 5 0 2 -8 -7 -18 -10 -10 -14 -22 -11 -25 4 -4 -1 -10 -10
-13 -12 -5 -14 -9 -6 -14 8 -5 8 -14 -1 -36 -7 -16 -11 -35 -10 -43 1 -7 -2
-10 -8 -6 -18 11 -13 -81 5 -100 10 -9 14 -26 11 -40 -2 -14 0 -25 5 -25 5 0
6 -4 3 -10 -3 -5 -1 -10 5 -10 6 0 15 -12 20 -26 6 -14 14 -23 19 -20 5 3 11
-4 14 -15 3 -12 10 -18 16 -15 5 4 16 -3 24 -14 7 -11 17 -17 21 -13 4 4 9 -3
13 -15 3 -12 9 -19 14 -16 5 3 9 -5 9 -18 0 -14 7 -33 15 -44 9 -12 14 -43 15
-82 0 -53 -2 -61 -14 -50 -8 7 -12 16 -10 20 2 4 -5 13 -16 21 -11 7 -17 17
-13 20 3 4 0 7 -9 7 -17 0 -43 73 -28 78 14 5 -16 32 -35 32 -9 0 -13 -4 -10
-10 3 -5 3 -10 0 -10 -11 0 -35 28 -35 42 -1 7 -8 24 -16 38 -11 18 -13 19 -9
5 4 -11 9 -33 11 -50 5 -29 5 -29 -8 -7 -8 12 -16 20 -19 17 -6 -5 -31 17 -54
50 -8 11 -13 13 -10 5 8 -24 -42 -24 -75 0 -19 14 -29 31 -32 55 -5 43 14 53
42 23 18 -19 20 -20 20 -4 0 16 3 15 30 -4 17 -12 30 -19 30 -16 0 10 -59 63
-62 55 -2 -5 -18 -5 -37 1 -40 11 -243 16 -260 6 -9 -6 -8 -14 3 -32 9 -13 16
-35 16 -49 0 -16 6 -25 16 -25 10 0 14 -5 10 -16 -4 -10 -2 -13 6 -8 7 5 9 2
6 -8 -4 -8 2 -20 13 -27 11 -6 18 -18 17 -26 -2 -8 6 -21 17 -30 11 -9 13 -13
5 -10 -8 4 4 -10 28 -30 23 -20 40 -41 36 -46 -3 -5 4 -9 15 -9 12 0 21 -4 21
-10 0 -5 6 -10 13 -10 16 0 67 -23 67 -30 0 -3 30 -3 66 -2 46 3 64 1 60 -7
-5 -8 1 -8 18 1 14 6 26 15 26 20 0 5 4 7 9 3 5 -3 12 -1 15 4 7 11 46 2 46
-10 0 -5 7 -9 16 -9 9 0 12 -5 8 -12 -4 -6 1 -17 12 -25 11 -8 19 -28 21 -51
1 -20 5 -52 9 -70 4 -19 2 -38 -5 -46 -8 -9 -10 -34 -6 -68 4 -39 3 -48 -5
-33 -7 15 -8 11 -4 -17 4 -26 2 -38 -5 -38 -7 0 -9 -5 -6 -10 3 -6 2 -10 -4
-10 -6 0 -7 -7 -4 -17 5 -12 3 -14 -7 -8 -10 6 -12 4 -7 -8 3 -9 0 -18 -9 -21
-9 -3 -12 -11 -9 -17 4 -6 -2 -13 -14 -16 -11 -3 -18 -9 -15 -14 3 -5 -1 -10
-8 -10 -7 -1 -17 -2 -23 -4 -5 -1 -16 -3 -23 -3 -7 -1 -10 -7 -6 -14 5 -8 2
-9 -9 -5 -10 4 -17 2 -17 -5 0 -6 -11 -8 -30 -4 -16 3 -30 1 -30 -4 0 -5 -7
-6 -17 -3 -12 5 -14 3 -8 -7 6 -10 4 -12 -8 -7 -9 3 -19 2 -22 -3 -4 -6 -17
-10 -31 -10 -13 0 -24 -4 -24 -10 0 -5 -9 -10 -21 -10 -12 0 -19 -5 -16 -12 2
-7 15 -12 28 -10 13 1 36 3 51 5 16 1 28 6 28 10 0 20 25 -2 26 -22 1 -12 -1
-19 -4 -16 -6 6 -32 -14 -32 -25 0 -4 7 -10 15 -14 15 -5 78 41 71 52 -2 4 2
13 10 20 8 7 14 10 14 6 0 -3 6 -1 14 5 11 9 15 9 19 -1 3 -8 6 -6 6 5 1 13 7
17 24 15 18 -2 22 -9 20 -36 0 -19 -9 -40 -20 -48 -10 -9 -12 -12 -4 -8 9 5
12 3 7 -5 -4 -6 -11 -9 -16 -6 -4 3 -13 -2 -20 -10 -7 -8 -27 -15 -45 -15 -39
0 -55 -25 -22 -34 12 -3 24 0 28 6 4 7 21 9 43 5 20 -3 36 -2 36 2 0 4 7 8 15
8 8 0 15 -4 15 -9 0 -5 5 -6 12 -2 8 5 9 -2 5 -24 -7 -35 3 -41 27 -16 20 19
20 38 1 58 -17 16 -20 53 -5 58 5 1 11 14 14 28 2 14 9 24 15 23 6 -2 11 4 11
12 0 8 4 15 10 15 5 0 9 -3 8 -7 -1 -5 2 -20 6 -35 10 -33 31 -37 39 -7 3 12
10 18 16 15 6 -4 8 -13 4 -21 -3 -8 -1 -15 5 -15 5 0 10 -11 10 -25 0 -14 -5
-22 -10 -19 -6 4 -7 -3 -3 -17 4 -13 4 -21 -1 -16 -14 13 -32 -46 -20 -66 8
-13 8 -20 -4 -27 -12 -8 -11 -10 8 -10 16 0 22 6 22 23 0 18 2 19 11 7 8 -12
10 -11 7 5 -2 12 7 30 22 43 14 13 19 20 11 16 -9 -5 -12 -3 -7 4 13 21 26 13
26 -17 0 -31 36 -85 51 -75 5 3 3 15 -6 27 -8 12 -15 28 -14 37 0 10 2 11 6 3
7 -20 30 -15 36 7 5 18 24 23 37 10 10 -10 69 -50 75 -50 16 0 2 43 -15 47
-11 3 -20 12 -20 19 0 8 -7 14 -16 14 -8 0 -13 4 -9 9 3 6 -3 8 -13 6 -11 -2
-30 7 -44 20 -14 13 -29 21 -34 17 -4 -4 -4 -2 -1 4 4 6 -2 22 -13 34 -11 13
-20 27 -20 32 0 15 50 8 57 -8 5 -13 7 -13 14 -2 7 10 9 10 9 1 0 -7 7 -13 15
-13 21 0 57 -38 49 -52 -5 -7 -3 -8 6 -3 10 6 12 4 7 -9 -4 -9 -3 -15 2 -12 5
3 15 -2 22 -11 12 -14 12 -16 0 -8 -10 6 -12 4 -7 -4 5 -7 14 -10 22 -7 8 3
14 2 14 -2 0 -4 9 -8 20 -9 11 -1 20 4 20 13 0 8 -6 14 -14 14 -8 0 -16 7 -20
15 -3 8 -9 15 -13 14 -20 -3 -27 2 -13 11 13 9 13 11 0 20 -8 5 -10 10 -5 10
6 0 3 5 -5 10 -22 14 35 13 62 -1 15 -8 19 -8 14 0 -11 16 15 13 34 -4 17 -16
50 -11 50 7 0 5 -13 15 -30 21 -16 6 -30 15 -30 19 0 4 -7 4 -17 1 -11 -4 -14
-3 -9 5 5 8 -3 12 -24 12 -18 0 -29 4 -25 10 3 6 2 10 -4 10 -5 0 -12 -4 -15
-9 -8 -12 -78 5 -91 22 -5 7 -15 12 -22 10 -6 -2 -15 1 -19 8 -5 8 -3 9 6 4 9
-5 11 -4 6 3 -4 7 -13 12 -20 12 -8 0 -16 9 -19 21 -3 12 -10 18 -16 14 -11
-6 -15 7 -12 32 1 7 -4 13 -10 13 -7 0 -10 3 -6 6 3 4 -1 13 -9 22 -9 8 -14
25 -11 38 2 14 0 21 -6 17 -5 -3 -6 3 -2 17 4 14 3 20 -3 16 -14 -9 -22 29
-22 117 0 68 10 109 31 127 3 3 8 12 11 21 7 17 48 33 48 18 0 -12 92 -9 109
5 12 9 13 8 6 -4 -7 -12 -6 -13 6 -4 8 6 22 10 32 9 9 -2 15 1 11 6 -3 5 5 9
17 9 12 0 28 8 36 18 9 10 12 11 7 2 -4 -8 21 13 55 48 40 39 61 68 57 77 -3
8 -1 15 5 15 7 0 10 14 7 35 -2 19 0 35 5 35 4 0 5 5 2 10 -10 16 -23 12 -30
-11 -10 -30 -61 -49 -112 -40 -24 5 -49 4 -59 -2 -18 -10 -18 -9 0 11 19 22
19 22 -3 22 -15 0 -20 4 -14 13 4 6 6 19 5 28 -2 9 4 19 12 22 8 3 17 19 21
36 4 17 11 31 16 31 5 0 9 6 9 13 0 8 -14 12 -40 12 -22 0 -40 -3 -40 -7 0 -4
-22 -19 -50 -34 -27 -15 -50 -31 -50 -36 0 -4 -6 -8 -14 -8 -8 0 -18 -9 -21
-20 -3 -11 -11 -20 -16 -20 -5 0 -9 -9 -9 -21 0 -11 -4 -18 -9 -15 -5 4 -7 -3
-4 -14 4 -15 0 -20 -13 -20 -15 0 -16 -2 -5 -9 7 -5 9 -11 4 -14 -5 -3 -10
-39 -11 -79 -1 -40 -7 -77 -12 -82 -5 -5 -7 -1 -3 13 3 13 1 21 -7 21 -9 0
-11 11 -7 38 4 24 3 32 -3 22 -6 -10 -9 2 -8 38 0 41 4 55 19 63 11 5 17 14
14 18 -3 5 2 12 11 15 12 4 14 13 9 29 -4 12 -8 31 -10 42 -2 11 -4 22 -4 24
-1 2 -10 -7 -21 -20 -18 -22 -20 -22 -17 -4 1 11 5 25 8 30 16 28 19 47 6 42
-19 -7 -41 14 -46 43 -11 70 -7 84 29 102 28 15 31 18 13 18 -12 0 -25 -4 -28
-10 -3 -5 -11 -10 -17 -10 -6 0 -3 9 7 20 10 11 14 20 9 20 -6 0 -11 10 -11
22 -2 18 0 20 7 8 8 -12 12 -8 22 18 7 17 21 35 31 38 16 5 15 8 -8 26 -25 20
-35 45 -12 32 6 -4 0 4 -15 19 -29 27 -37 43 -15 31 6 -4 3 2 -7 14 -11 12
-25 22 -33 22 -8 0 -11 5 -8 10 10 16 1 12 -16 -8z"/>
</g>
</svg>
